<svg xmlns="http://www.w3.org/2000/svg" width="99" height="27">
  <defs>
    <clipPath id="a">
      <path d="M0 157.198h566.93V0H0v157.198z"/>
    </clipPath>
  </defs>
  <g fill="#fff" clip-path="url(#a)" transform="matrix(.17 0 0 -.17 0 27)">
    <path d="M68.73 157.198c-37.27 0-67.487-30.22-67.487-67.49 0-18.726 7.617-35.66 19.917-47.866l15.633 16.494c-7.925 8.076-12.832 19.14-12.832 31.362 0 4.683.74 9.18 2.06 13.423 5.71 18.17 22.68 31.34 42.72 31.34 20.05 0 37.02-13.17 42.71-31.34h.57l-.42-.48c1.24-4.09 1.91-8.44 1.91-12.94 0-24.73-20.05-44.76-44.77-44.76-2.36 0-4.66.19-6.92.54L45.23 26.43c7.31-2.727 15.24-4.207 23.5-4.207 37.286 0 67.494 30.2 67.494 67.49 0 37.27-30.21 67.49-67.493 67.49M0 19.48L22.195 0 45.23 26.425c-9.112 3.39-17.308 8.693-24.07 15.416L0 19.48z"/>
    <path d="M61.81 45.475l17.71 20.332 32.07 36.83c-.042.167-.09.323-.15.485H26.016l32.006-22.33-21.23-22.456c6.592-6.704 15.283-11.357 25.017-12.86m157.22 30.3c0-3.095-.66-5.78-1.98-8.085-1.3-2.29-3.08-4.21-5.32-5.76-2.23-1.54-4.86-2.71-7.86-3.48-3.01-.78-6.19-1.18-9.52-1.18-2.27 0-4.46.13-6.58.37-2.12.25-4.15.68-6.13 1.3-1.96.62-3.91 1.49-5.85 2.59-1.94 1.11-3.87 2.49-5.77 4.16L178 76.15c2.61-2.08 5.256-3.61 7.905-4.6 2.65-.987 5.325-1.475 7.993-1.475 1.98 0 3.61.176 4.923.537 1.32.35 2.37.827 3.17 1.39.81.56 1.38 1.166 1.71 1.83.34.65.49 1.27.49 1.875 0 .898-.22 1.694-.67 2.368-.45.69-1.2 1.323-2.28 1.914-1.07.6-2.48 1.2-4.24 1.79-1.76.6-3.95 1.25-6.57 1.97-2.86.78-5.38 1.64-7.59 2.64-2.21.98-4.07 2.17-5.59 3.57-1.51 1.39-2.66 3.06-3.43 4.95-.77 1.91-1.17 4.2-1.17 6.88 0 2.81.56 5.33 1.66 7.56 1.1 2.22 2.65 4.14 4.65 5.72 2 1.57 4.39 2.78 7.16 3.62 2.79.83 5.8 1.25 9.08 1.25 3.58 0 7.1-.34 10.59-.99 3.49-.66 7.12-2.24 10.87-4.74l-6.35-11.45c-2.92 1.84-5.59 3.01-8 3.48-2.41.49-4.84.71-7.29.71-2.26 0-4.1-.38-5.49-1.1-1.4-.76-2.11-2-2.11-3.72 0-.78.23-1.48.67-2.1.46-.62 1.21-1.24 2.28-1.84 1.08-.6 2.48-1.18 4.21-1.74s3.84-1.21 6.34-1.93c3.94-1.09 7.1-2.28 9.48-3.62 2.39-1.35 4.21-2.8 5.51-4.37 1.28-1.6 2.13-3.29 2.55-5.1.41-1.83.62-3.71.62-5.69m4.91 43.54h43v-12.6H238.2v-11.6h24.573V82.49h-24.58V70.32h28.78V57.73h-43v61.587zm82.31-22.07c0 1.78-.3 3.29-.9 4.5-.59 1.23-1.36 2.21-2.27 2.95-.92.75-1.98 1.29-3.18 1.65-1.19.36-2.35.54-3.48.54-1.19 0-2.38-.18-3.53-.54-1.16-.36-2.22-.9-3.18-1.65-.95-.75-1.73-1.73-2.32-2.96-.6-1.22-.89-2.73-.89-4.51V79.8c0-1.792.29-3.295.89-4.516.59-1.206 1.37-2.207 2.32-2.935.96-.77 2.02-1.31 3.18-1.67 1.16-.36 2.34-.54 3.53-.54 1.13 0 2.29.17 3.48.53 1.2.36 2.26.91 3.18 1.67.91.72 1.68 1.73 2.27 2.93.6 1.22.9 2.72.9 4.51v17.44zm14.22-20.03c0-3.4-.65-6.35-1.96-8.85s-3.06-4.59-5.27-6.26c-2.2-1.67-4.76-2.94-7.68-3.76-2.9-.83-5.96-1.26-9.18-1.26-3.2 0-6.25.43-9.13 1.26-2.89.82-5.45 2.09-7.68 3.76-2.24 1.66-4 3.75-5.31 6.25-1.31 2.5-1.96 5.45-1.96 8.85v23.16c0 3.4.72 6.3 2.14 8.75 1.42 2.46 3.28 4.47 5.57 6.09 2.29 1.6 4.86 2.79 7.72 3.57 2.84.78 5.73 1.16 8.64 1.16s5.81-.42 8.7-1.26c2.88-.84 5.47-2.08 7.77-3.71 2.29-1.64 4.13-3.71 5.52-6.22 1.41-2.5 2.1-5.45 2.1-8.84V77.2zm77.36-2.86c0-2.79-.53-5.29-1.59-7.49-1.06-2.21-2.58-4.08-4.54-5.63-1.96-1.54-4.29-2.72-7.01-3.52-2.72-.83-5.75-1.23-9.07-1.23-4.27 0-8.32.6-12.09 1.82-3.77 1.2-7.42 3.17-10.92 5.88l4.71 5.99c2.78-1.94 5.72-3.47 8.84-4.53 3.12-1.1 6.29-1.63 9.56-1.63 4.23 0 7.55.9 9.97 2.7 2.42 1.82 3.62 4.36 3.62 7.63 0 2.04-.47 3.72-1.39 5.02-.93 1.29-2.15 2.33-3.63 3.11-1.48.79-3.1 1.4-4.89 1.82-1.79.43-3.53.82-5.21 1.19-2.47.49-4.85 1.1-7.17 1.85-2.28.77-4.32 1.8-6.06 3.14-1.75 1.32-3.17 2.97-4.27 4.93-1.08 1.97-1.62 4.4-1.62 7.29 0 2.603.47 5.01 1.4 7.213.93 2.22 2.29 4.1 4.04 5.655 1.75 1.58 3.86 2.82 6.34 3.73 2.49.9 5.29 1.36 8.43 1.36 3.63 0 7.17-.33 10.61-.995 3.44-.67 6.73-1.97 9.87-3.91l-3.89-7.07c-2.66 1.57-5.42 2.7-8.29 3.37-2.87.65-5.66 1-8.38 1-1.64 0-3.17-.21-4.62-.64-1.45-.42-2.72-1.07-3.81-1.94-1.08-.87-1.95-1.98-2.58-3.32-.63-1.33-.95-2.86-.95-4.61 0-1.755.45-3.18 1.36-4.255.91-1.1 2.06-1.976 3.45-2.68 1.39-.69 2.9-1.26 4.53-1.67 1.64-.43 3.18-.78 4.63-1.09 2.59-.605 5.14-1.28 7.61-2.035 2.47-.75 4.67-1.79 6.61-3.13 1.928-1.32 3.49-3.04 4.67-5.16 1.167-2.113 1.77-4.83 1.77-8.14m31.52-16.26c-1.76-.592-3.59-.99-5.48-1.202-1.903-.21-3.31-.31-4.21-.31-4.78 0-8.25 1.09-10.39 3.255-2.134 2.18-3.21 5.81-3.21 10.88V95h-6.34v6.98h6.54l1.823 10.43h5.77v-10.43h12.5V95H413.9V73.01c0-1.812.17-3.316.5-4.483.33-1.182.783-2.13 1.36-2.822.57-.704 1.27-1.172 2.12-1.42.847-.236 1.82-.358 2.896-.358 1.03 0 2.16.07 3.4.225 1.247.146 2.56.322 3.95.503l1.26-6.553zm31.08-1.07l-.91 4.75c-1.87-1.14-3.523-2.05-4.94-2.73-1.423-.69-2.693-1.21-3.8-1.573-1.12-.36-2.12-.6-3-.716-.88-.12-1.702-.17-2.483-.17-4.78 0-8.5 1.37-11.15 4.15-2.66 2.78-3.98 6.74-3.98 11.88v29.36H438v-28.6c0-3.497.784-5.968 2.315-7.4 1.543-1.416 3.45-2.1 5.76-2.036 1.8 0 3.9.483 6.282 1.45 2.39.962 4.792 2.33 7.21 4.09v32.51h7.79V57.03h-6.88zm40.59 35.25c-2.413.858-4.684 1.53-6.8 2.05-2.11.51-4.1.77-5.98.77-2.41.06-4.47-.65-6.16-2.13-1.7-1.48-2.54-3.98-2.54-7.5V73.01c0-3.434.72-5.817 2.18-7.135 1.447-1.304 3.38-1.948 5.8-1.948.838 0 1.83.14 2.986.395 1.15.278 2.32.664 3.53 1.152 1.21.48 2.42 1.036 3.63 1.675 1.2.63 2.32 1.31 3.35 2.05v23.08zm.92-35.26l-.93 4.65c-3.57-2.09-6.42-3.45-8.566-4.11-2.14-.66-4.03-.99-5.66-.99-2.18 0-4.19.31-6.02.945-1.84.65-3.42 1.61-4.76 2.91-1.33 1.29-2.36 2.96-3.12 4.98-.75 2.02-1.125 4.42-1.125 7.2v13.77c0 2.55.4 4.8 1.21 6.786.82 2 1.94 3.68 3.366 5.04 1.41 1.36 3.087 2.4 5.03 3.12 1.93.73 3.98 1.09 6.16 1.09 1.63 0 3.545-.18 5.75-.554 2.2-.35 4.79-1.02 7.747-1.99v22.03h7.79V57.03H502zm12.84 44.95h7.794V57.03h-7.79v44.947zm44.31-17.42c0 1.926-.34 3.56-.986 4.91-.672 1.34-1.53 2.44-2.59 3.28-1.06.84-2.23 1.446-3.49 1.797-1.27.37-2.51.55-3.72.55-1.27 0-2.54-.18-3.8-.55-1.27-.36-2.432-.96-3.49-1.8-1.06-.84-1.92-1.94-2.58-3.28-.66-1.35-1-2.99-1-4.91v-10.1c0-1.926.286-3.56.865-4.914.56-1.35 1.34-2.45 2.31-3.28.96-.84 2.11-1.45 3.45-1.82 1.32-.36 2.74-.54 4.25-.54 1.2 0 2.45.18 3.72.54 1.26.36 2.42.97 3.49 1.81 1.06.836 1.91 1.93 2.59 3.28.64 1.35.98 2.99.98 4.91v10.09zm7.8-11.663c0-2.6-.505-4.91-1.51-6.936-.99-2.03-2.353-3.72-4.084-5.11-1.72-1.39-3.7-2.46-5.95-3.17-2.24-.74-4.63-1.088-7.17-1.088-2.61 0-5.03.35-7.27 1.09-2.24.71-4.2 1.78-5.863 3.17-1.67 1.39-2.98 3.087-3.944 5.11-.97 2.025-1.46 4.34-1.46 6.937v13.05c0 2.6.5 4.91 1.49 6.93 1.01 2.03 2.33 3.75 4 5.17 1.66 1.42 3.63 2.5 5.9 3.26 2.28.76 4.69 1.13 7.23 1.13 2.72 0 5.22-.37 7.497-1.13 2.27-.76 4.24-1.84 5.9-3.26 1.67-1.41 2.95-3.13 3.87-5.16.9-2.03 1.36-4.33 1.36-6.93V72.9z"/>
    <path d="M353.633 79.146H327.97v7.23h25.663v-7.23zm173.83 36.812l-8.3-8.3-8.297 8.3h16.597z"/>
  </g>
</svg>
