<svg xmlns="http://www.w3.org/2000/svg" width="100%" height="100%" viewBox="0 0 186 36.958">
  <defs>
    <clipPath id="a">
      <path d="M0 99.936h505.45V0H0v99.936z"/>
    </clipPath>
    <clipPath id="b">
      <path d="M22.234 85.608V24.4l4.314 9.13c-.03.015-.044.05-.032.08l17.895 46.8c.75 1.645 1.45 3.807 2.61 5.198H22.24z"/>
    </clipPath>
    <clipPath id="c">
      <path d="M63.845 85.61c-2.96 0-5.66-.906-7.86-2.572l-.112-.085c-1.344-1.042-2.495-2.372-3.397-3.956l-25.844-45.44c-.016-.03-.052-.04-.084-.027l-4.314-9.13 61.21 61.21h-19.6z"/>
    </clipPath>
    <clipPath id="d">
      <path d="M22.236 24.4l9.13 4.312c-.013.03 0 .066.03.084L76.833 54.64c2.123 1.207 3.79 2.863 4.918 4.83l.04.067c1.08 1.91 1.66 4.108 1.66 6.47V85.61L22.24 24.4z"/>
    </clipPath>
    <clipPath id="e">
      <path d="M78.25 46.572l-46.8-17.894c-.032-.013-.068.002-.082.034l-9.097-4.295-.03-.017h61.21v24.773c-1.39-1.153-3.55-1.853-5.19-2.6"/>
    </clipPath>
    <clipPath id="f">
      <path d="M0 99.936h505.45V0H0v99.936z"/>
    </clipPath>
  </defs>
  <path fill="#75b835" d="M32.165 29.46V5.876h7.51v7.814l6.788-7.814h8.79L46.83 14.57l9.512 14.89h-9.03l-5.764-9.446-1.874 1.937v7.51h-7.51z"/>
  <g fill="#75b835" clip-path="url(#a)" transform="matrix(.38492 0 0 -.38492 -8.558 38.467)">
    <path fill-rule="evenodd" d="M483.19 87.27h-18.358V23.722h18.358V87.27zm-27.04 0h-18.357V23.722h18.358V87.27zm-53.34-54.457c-1.823.014-3.25.382-4.265 1.074-1.03.706-1.544 1.647-1.56 2.81.016 1.19.31 2.117.87 2.81.572.675 1.337 1.205 2.308 1.587.97.368 2.06.692 3.266.942 1.2.25 2.45.53 3.75.838 1.29.324 2.54.765 3.75 1.324.16-2.133 0-4.06-.47-5.78-.49-1.707-1.34-3.06-2.58-4.06-1.25-1.016-2.94-1.516-5.08-1.545m28.95-9.09v.882c-.78.632-1.36 1.235-1.71 1.81-.34.573-.56 1.176-.65 1.823-.09.647-.14 1.412-.12 2.28V52.14c.01 1.84-.05 3.59-.21 5.253-.15 1.647-.46 3.192-.94 4.62-.5 1.426-1.24 2.705-2.25 3.838-1 1.15-2.37 2.12-4.06 2.93-1.71.81-3.86 1.43-6.43 1.87-2.59.43-5.69.65-9.33.65-4.56 0-8.45-.35-11.65-1.04-3.21-.7-5.83-1.72-7.83-3.04-2-1.34-3.46-2.95-4.39-4.88-.94-1.91-1.4-4.1-1.38-6.56h17.65c.18 1.31.6 2.28 1.29 2.93.69.66 1.51 1.09 2.44 1.3.93.21 1.82.29 2.7.28.5.01 1.08-.03 1.76-.12.66-.09 1.32-.26 1.97-.51.63-.26 1.17-.65 1.6-1.15.42-.51.64-1.17.66-2.01-.02-1.06-.49-1.9-1.41-2.48-.93-.58-2.17-1.04-3.74-1.35-1.56-.31-3.31-.57-5.27-.79-1.96-.22-3.97-.48-6.05-.79-2.07-.3-4.09-.78-6.04-1.38-1.95-.6-3.71-1.44-5.27-2.51-1.58-1.09-2.81-2.5-3.74-4.25-.91-1.75-1.38-3.94-1.41-6.55.01-2.39.47-4.48 1.35-6.23.88-1.75 2.09-3.2 3.62-4.34 1.54-1.14 3.29-1.98 5.26-2.54 1.97-.54 4.06-.82 6.27-.82 2.28-.01 4.43.18 6.41.55 1.98.38 3.88 1.03 5.68 1.94 1.81.92 3.57 2.18 5.29 3.78l.88-4.94h18.98zm-137.9 0h18.36V46.58c-.02 1.884.13 3.59.47 5.135.34 1.53.97 2.765 1.91 3.692.92.912 2.28 1.398 4.06 1.412 1.6.01 2.85-.31 3.76-.96.9-.65 1.53-1.68 1.9-3.09.35-1.4.53-3.22.51-5.49V23.72h18.36v22.86c-.02 1.88.13 3.59.47 5.133.34 1.53.97 2.765 1.91 3.692.92.912 2.28 1.398 4.06 1.412 1.6.01 2.85-.31 3.76-.96.89-.648 1.53-1.678 1.9-3.09.35-1.397.53-3.22.51-5.487V23.72h18.36v27.36c.01 3.163-.28 5.987-.87 8.488-.61 2.486-1.58 4.604-2.94 6.355-1.35 1.735-3.18 3.074-5.46 3.986-2.28.91-5.11 1.38-8.47 1.38-3.38 0-6.4-.72-9.05-2.15-2.64-1.43-4.95-3.55-6.93-6.33-.72 1.66-1.74 3.13-3.05 4.4-1.31 1.26-2.96 2.25-4.94 2.97-1.97.72-4.34 1.09-7.11 1.1-1.66-.02-3.25-.28-4.75-.78-1.52-.52-2.92-1.18-4.2-2-1.28-.83-2.41-1.71-3.38-2.65-.97-.96-1.75-1.89-2.32-2.78v6.88h-16.86V23.72zm-38.6 0h20.47l15.62 46.247H273.7l-8.03-29.214-8.12 29.214H239.2l16.064-46.248zM235.11 69.97h-18.36V23.722h18.36V69.97zm-56.43 0h-18.446l15.18-42.1c.633-1.69.884-3.045.75-4.045-.13-.985-.676-1.706-1.646-2.133-.97-.426-2.398-.632-4.31-.618-.618 0-1.236.015-1.868.045-.618.02-1.265.04-1.927.04V8.36c.485 0 1.147-.03 1.985-.088.84-.06 1.8-.118 2.86-.177 1.06-.058 2.148-.088 3.28-.088 3.237 0 5.987.19 8.21.587 2.234.4 4.088 1.03 5.588 1.915 1.486.88 2.75 2.04 3.795 3.5 1.03 1.45 1.97 3.23 2.83 5.35.86 2.1 1.77 4.59 2.71 7.44l14.83 43.16h-17.65l-8.03-28.5-8.12 28.5z"/>
    <path d="M488.04 89.73v8.134h-2.925v2.072h8.46v-2.072h-2.924V89.73h-2.61zm6.352 0v10.206h3.597l1.34-4.968c.12-.44.23-.865.32-1.28.09-.412.18-.816.25-1.208.08.416.18.85.29 1.306.11.455.24.944.38 1.466l1.27 4.684h3.59V89.73h-2.39v4.524c0 .32 0 .765.02 1.34.01.576.04 1.24.07 1.993l-1.96-7.858h-2.59l-1.92 7.85c.03-.91.06-1.72.07-2.45.02-.73.03-1.29.03-1.7v-3.72h-2.41zM216.717 17.233h6.414V16.15h-2.58V7.485h-1.25v8.663h-2.58v1.083zm12.725-.977c-1.043 0-1.94-.385-2.69-1.156-.748-.77-1.122-1.702-1.122-2.795 0-.704.17-1.36.513-1.97.342-.61.804-1.08 1.385-1.412.58-.33 1.22-.497 1.915-.497.694 0 1.332.166 1.914.497.58.332 1.043.802 1.385 1.412.34.61.51 1.266.51 1.97 0 1.093-.374 2.025-1.126 2.795-.752.77-1.647 1.156-2.684 1.156m.005 1.228c1.5 0 2.746-.544 3.733-1.63.898-.993 1.346-2.166 1.346-3.522 0-1.362-.475-2.552-1.423-3.57-.948-1.018-2.167-1.527-3.656-1.527-1.496 0-2.72.51-3.666 1.527-.94 1.018-1.42 2.208-1.42 3.57 0 1.35.45 2.52 1.35 3.512.99 1.093 2.24 1.64 3.75 1.64m12.44-1.21c-1.08 0-2-.38-2.74-1.137-.74-.757-1.11-1.7-1.11-2.827 0-.74.17-1.405.5-1.996.33-.59.81-1.06 1.42-1.405.62-.35 1.27-.52 1.96-.52.67 0 1.31.17 1.9.52.59.35 1.06.83 1.42 1.46.35.62.53 1.28.53 1.97s-.17 1.34-.52 1.96c-.35.62-.82 1.1-1.41 1.44-.59.34-1.23.51-1.93.51m-5.02.96h1.26v-1.79c.5.68 1.07 1.19 1.71 1.53.65.34 1.36.51 2.16.51 1.39 0 2.57-.5 3.55-1.5.99-1 1.48-2.2 1.48-3.6 0-1.44-.48-2.66-1.46-3.66-.97-1-2.15-1.5-3.53-1.5-.78 0-1.49.16-2.14.48-.65.32-1.24.8-1.76 1.44v-5.2h-1.26v13.31zm13.76-1.1V7.48h-1.26v9.747h4.93v-1.1h-3.67zm9.98.12c-1.04 0-1.94-.39-2.68-1.16-.75-.77-1.12-1.71-1.12-2.8 0-.71.17-1.36.51-1.97.34-.61.8-1.08 1.38-1.42.58-.33 1.22-.5 1.92-.5s1.33.16 1.92.49c.58.33 1.05.8 1.39 1.41.34.61.51 1.26.51 1.97 0 1.09-.37 2.02-1.13 2.79-.75.77-1.64 1.15-2.68 1.15m.01 1.22c1.5 0 2.75-.54 3.74-1.63.9-.99 1.34-2.16 1.34-3.52 0-1.36-.48-2.55-1.43-3.57-.95-1.01-2.17-1.52-3.66-1.52-1.5 0-2.72.51-3.67 1.52-.95 1.02-1.42 2.21-1.42 3.57 0 1.35.44 2.52 1.34 3.51.99 1.1 2.24 1.64 3.74 1.64m8.65-5.53V8.5h1.35c.64 0 1.09.04 1.36.12.28.09.51.26.7.53.2.27.3.61.3 1.02 0 .53-.17.957-.51 1.27-.34.32-.78.48-1.33.48h-1.87zm0 4.2v-3h.82c.75 0 1.23.03 1.46.09.23.06.45.2.65.44.2.23.3.54.3.93 0 .4-.1.74-.31 1.01s-.43.44-.66.48c-.23.042-.71.07-1.42.07h-.82zm1.58-8.67H268v9.75h2.785c1.065 0 1.83-.25 2.3-.73.47-.49.7-1.06.7-1.72 0-.99-.433-1.66-1.305-2.01 1.265-.45 1.9-1.32 1.9-2.59 0-1.8-1.184-2.69-3.55-2.69m10.364 8.77c-1.046 0-1.94-.39-2.69-1.16-.75-.77-1.124-1.7-1.124-2.79 0-.71.17-1.36.51-1.97.343-.61.805-1.08 1.386-1.41.58-.33 1.22-.5 1.916-.5.693 0 1.33.17 1.913.5.58.33 1.044.8 1.386 1.41.34.61.51 1.26.51 1.97 0 1.09-.37 2.02-1.12 2.79s-1.65 1.15-2.68 1.15m.01 1.23c1.5 0 2.75-.54 3.74-1.63.9-.99 1.35-2.16 1.35-3.52 0-1.36-.47-2.55-1.42-3.57s-2.16-1.52-3.65-1.52c-1.49 0-2.72.51-3.66 1.53-.95 1.01-1.42 2.2-1.42 3.57 0 1.35.45 2.52 1.35 3.51.99 1.09 2.24 1.64 3.75 1.64m6.59-4.5h4.93v-1.09h-4.93v1.09zm11.94 3.29c-1.08 0-2-.38-2.74-1.14-.74-.76-1.11-1.7-1.11-2.83 0-.74.17-1.41.5-2 .34-.59.81-1.06 1.42-1.41.62-.35 1.27-.52 1.96-.52.68 0 1.31.17 1.9.52.6.35 1.07.832 1.42 1.46.35.63.53 1.28.53 1.97s-.17 1.35-.52 1.97c-.35.62-.82 1.1-1.41 1.44-.59.34-1.24.51-1.93.51m-5.02.96H296V15.4c.495.68 1.065 1.19 1.71 1.53.644.34 1.36.516 2.156.516 1.386 0 2.57-.5 3.555-1.5.99-.993 1.48-2.194 1.48-3.6 0-1.43-.48-2.65-1.46-3.65-.97-1-2.15-1.5-3.53-1.5-.77 0-1.49.16-2.14.485-.65.32-1.24.8-1.76 1.44v-5.2h-1.27v13.32zm17.1-.97c-1.04 0-1.94-.39-2.69-1.16-.74-.77-1.12-1.7-1.12-2.8 0-.7.17-1.36.51-1.97.35-.61.81-1.08 1.39-1.41.58-.33 1.22-.498 1.91-.498.7 0 1.34.17 1.92.5.58.33 1.04.8 1.39 1.41.34.61.51 1.262.51 1.97 0 1.09-.37 2.02-1.12 2.79s-1.65 1.15-2.69 1.15m0 1.23c1.5 0 2.75-.545 3.74-1.63.9-.994 1.35-2.167 1.35-3.52 0-1.36-.47-2.55-1.42-3.57s-2.17-1.52-3.66-1.52c-1.5 0-2.72.51-3.67 1.53-.95 1.02-1.42 2.21-1.42 3.57 0 1.35.45 2.52 1.35 3.51.99 1.095 2.24 1.64 3.74 1.64m9.03-4.334h.66c.42 0 .81.14 1.16.41.35.27.52.67.52 1.18 0 .43-.14.8-.42 1.12-.28.31-.71.46-1.29.46-.67 0-1.35-.27-2.03-.79l-.71.87c.88.73 1.81 1.1 2.79 1.1.81 0 1.49-.24 2.04-.73s.82-1.11.82-1.87c0-1.01-.44-1.7-1.34-2.06 1.17-.49 1.76-1.35 1.76-2.58 0-.78-.27-1.48-.82-2.1-.55-.62-1.363-.934-2.45-.934-1.33 0-2.404.43-3.22 1.3l.79.893c.6-.68 1.38-1.02 2.32-1.02.63 0 1.13.17 1.49.51.36.34.54.79.54 1.344 0 .54-.18.98-.54 1.306-.37.33-.8.49-1.29.49h-.77v1.08zm7.38-1.19V8.5h1.35c.64 0 1.09.04 1.36.12.27.08.51.26.7.53.2.27.29.61.29 1.02 0 .53-.16.95-.5 1.27-.33.32-.78.47-1.33.47h-1.87zm0 4.19v-3h.82c.75 0 1.23.03 1.46.09.22.06.44.205.64.44.2.235.3.546.3.934 0 .406-.11.746-.31 1.02-.21.274-.43.435-.66.48-.23.05-.704.07-1.422.07h-.815zm1.58-8.67H327v9.75h2.785c1.067 0 1.83-.247 2.3-.735.47-.49.704-1.06.704-1.72 0-.99-.44-1.66-1.31-2.01 1.26-.45 1.9-1.313 1.9-2.59 0-1.8-1.19-2.69-3.55-2.69m10.45 8.79c-.7 0-1.34-.18-1.93-.52-.59-.343-1.06-.824-1.41-1.445-.35-.62-.52-1.274-.52-1.966 0-.69.17-1.35.53-1.97.35-.63.82-1.12 1.41-1.47.6-.35 1.23-.53 1.91-.53.69 0 1.34.176 1.95.52.62.35 1.09.817 1.42 1.407.33.59.5 1.26.5 2 0 1.13-.37 2.07-1.12 2.83-.74.756-1.66 1.13-2.74 1.13m5.01.96V7.49h-1.24v1.67c-.53-.64-1.12-1.12-1.77-1.442-.65-.322-1.37-.484-2.14-.484-1.38 0-2.56.5-3.54 1.5s-1.46 2.218-1.46 3.652c0 1.403.49 2.604 1.48 3.6.98.998 2.17 1.498 3.55 1.498.8 0 1.53-.17 2.17-.51.65-.342 1.22-.852 1.7-1.533v1.8h1.24zm7.82 0h1.27v-4.3l4.66 4.32h1.53l-4.61-4.344 4.96-5.4h-1.6l-4.22 4.71-.72-.6v-4.1h-1.27v4.12l-.7.6-4.19-4.714h-1.62l4.89 5.41-4.53 4.34h1.53l4.61-4.3v4.3zm13.81-.96c-.7 0-1.35-.17-1.94-.51-.59-.34-1.06-.82-1.41-1.44-.35-.62-.52-1.278-.52-1.97 0-.684.18-1.34.53-1.97.35-.62.82-1.11 1.42-1.46.59-.35 1.23-.52 1.91-.52.69 0 1.34.174 1.95.52.61.346 1.09.815 1.42 1.405.33.59.5 1.26.5 2 0 1.12-.38 2.07-1.12 2.82-.74.76-1.66 1.132-2.74 1.132m5.01.96v-9.7h-1.24v1.67c-.53-.64-1.12-1.12-1.77-1.448-.66-.32-1.37-.48-2.15-.48-1.38 0-2.56.5-3.54 1.5s-1.47 2.22-1.47 3.65c0 1.402.49 2.61 1.48 3.6.98 1 2.17 1.5 3.55 1.5.8 0 1.52-.17 2.17-.51.65-.34 1.21-.85 1.7-1.53v1.8h1.23zM383 7.49h-1.335l-3.262 7.098-3.234-7.098h-1.35l4.47 9.747h.22L383 7.49zm3.207 4.74V8.542h1.442c1.69 0 2.54.597 2.54 1.792 0 .34-.09.675-.28 1.003-.19.328-.45.558-.8.69-.35.13-.97.197-1.85.197h-1.06zm-.045 1.145h1.19c.952 0 1.695-.07 2.233-.22s1-.48 1.39-.99c.387-.51.58-1.1.58-1.76 0-.8-.28-1.485-.84-2.056-.562-.57-1.413-.86-2.554-.86h-3.25v9.74h1.25v-3.87zm14.325-1.19H394.8V7.488h-1.253v9.747h1.254v-3.87h5.67v3.87h1.26v-9.75h-1.25v4.695zm5.303 5.055v-7.22l7.16 7.212h.1V7.49h-1.254v7.143L404.69 7.49h-.15v9.745h1.257zm11.128 3.913h1.183c.21-.31.48-.543.82-.7.34-.154.75-.232 1.22-.232.48 0 .87.07 1.16.21.3.14.57.38.84.73h1.15c-.13-.54-.47-.99-1.01-1.35-.54-.36-1.25-.54-2.13-.54-.88 0-1.59.18-2.15.53-.55.36-.9.81-1.05 1.36m.18-3.91v-7.22l7.16 7.22h.1V7.49h-1.26v7.143L416 7.49h-.15v9.74h1.253zm24.24-9.75h-9.11v9.75h1.26V8.67h5.67v8.563h1.26V8.67h2.11V5.944h-1.18v1.54zm11.08 5.86c-.16.67-.41 1.21-.73 1.61-.32.4-.74.72-1.27.97s-1.08.37-1.66.37c-.95 0-1.78-.31-2.46-.92-.5-.44-.88-1.12-1.14-2.01h7.27zm0-2.62l1.06-.55c-.34-.68-.74-1.23-1.2-1.65-.45-.41-.96-.73-1.53-.95-.56-.21-1.21-.32-1.92-.32-1.59 0-2.84.52-3.73 1.57-.89 1.04-1.34 2.22-1.34 3.54 0 1.24.38 2.34 1.14 3.31.96 1.23 2.25 1.84 3.87 1.84 1.66 0 2.99-.63 3.98-1.89.71-.89 1.07-2 1.08-3.33h-8.77c.02-1.13.38-2.06 1.08-2.78.7-.72 1.57-1.08 2.6-1.08.49 0 .98.09 1.45.26.47.18.86.4 1.19.69.33.29.69.75 1.07 1.39m10.65 1.46h-5.67V7.5h-1.26v9.75h1.26v-3.87h5.67v3.87h1.26V7.48h-1.26v4.694zm2.97 5.05h6.41v-1.1h-2.58V7.5h-1.26v8.66H466v1.085zm13.15-.96c-1.09 0-2-.38-2.74-1.13-.74-.75-1.11-1.7-1.11-2.82 0-.74.16-1.41.49-2 .33-.59.81-1.06 1.42-1.41.62-.34 1.27-.52 1.96-.52.676 0 1.31.18 1.9.53.595.35 1.07.84 1.42 1.47.35.62.527 1.28.527 1.97s-.17 1.34-.52 1.96c-.35.62-.816 1.1-1.406 1.45-.59.34-1.23.52-1.93.52m-5.015.96h1.254v-1.8c.49.68 1.06 1.19 1.71 1.53.64.34 1.36.51 2.15.51 1.38 0 2.57-.5 3.55-1.5.99-1 1.48-2.2 1.48-3.6 0-1.44-.49-2.65-1.465-3.65s-2.15-1.5-3.53-1.5c-.78 0-1.49.16-2.14.488-.65.32-1.24.8-1.76 1.44v-5.3h-1.25v13.31z"/>
  </g>
  <g clip-path="url(#b)" transform="matrix(.38492 0 0 -.38492 -8.558 38.467)">
    <path fill="#6cb537" d="M26.11 94.61c7.52-3.24 15.038-6.476 22.557-9.714-2.136-4.96-4.27-9.92-6.407-14.88L19.702 79.73l6.408 14.88z"/>
    <path fill="#6cb537" d="M19.702 79.73l22.558-9.714c-1.53-3.55-3.058-7.1-4.586-10.65L15.116 69.08c1.53 3.55 3.058 7.1 4.586 10.65z"/>
    <path fill="#5ead3a" d="M15.116 69.08c7.52-3.24 15.038-6.477 22.558-9.715l-4.587-10.65-22.557 9.713c1.53 3.55 3.058 7.1 4.586 10.65z"/>
    <path fill="#419f3e" d="M10.53 58.428l22.557-9.713-4.586-10.65-22.55 9.712 4.59 10.65z"/>
    <path fill="#1c9240" d="M5.943 47.777L28.5 38.065l-4.585-10.65c-7.52 3.236-15.038 6.474-22.558 9.712 1.53 3.55 3.058 7.1 4.586 10.65z"/>
    <path fill="#0c8c40" d="M1.357 37.127l22.558-9.713-1.358-3.153L0 33.98l1.357 3.153z"/>
  </g>
  <g clip-path="url(#c)" transform="matrix(.38492 0 0 -.38492 -8.558 38.467)">
    <path fill="#6cb537" d="M74.526 97.246l15.826-20.654L77.075 66.42 61.25 87.073c4.426 3.39 8.85 6.782 13.276 10.173z"/>
    <path fill="#6cb537" d="M61.25 87.073L77.075 66.42l-11.13-8.528L50.12 78.545l11.13 8.528z"/>
    <path fill="#5ead3a" d="M50.12 78.545l15.825-20.653-11.13-8.53L38.99 70.017l11.13 8.528z"/>
    <path fill="#419f3e" d="M38.99 70.017l15.824-20.654-11.13-8.528L27.86 61.488l11.13 8.53z"/>
    <path fill="#1c9240" d="M27.86 61.488l15.825-20.653-11.13-8.528L16.73 52.96l11.13 8.528z"/>
    <path fill="#0c8c40" d="M16.73 52.96l15.824-20.653-10.32-7.908L6.41 45.05c3.44 2.636 6.88 5.27 10.32 7.907z"/>
  </g>
  <g clip-path="url(#d)" transform="matrix(.38492 0 0 -.38492 -8.558 38.467)">
    <path fill="#6cb537" d="M93.41 79.932c-13.776-24.18-27.55-48.36-41.326-72.538l-9.54 5.435L83.87 85.36c3.18-1.81 6.36-3.623 9.54-5.434zm-9.54 5.434L42.543 12.83l-1.67.95C54.646 37.96 68.42 62.14 82.196 86.32c.557-.32 1.115-.636 1.672-.954z"/>
    <path fill="#5ead3a" d="M82.197 86.32L40.873 13.78c-.558.32-1.115.636-1.672.953L80.53 87.27l1.672-.95z"/>
    <path fill="#419f3e" d="M80.525 87.27L39.2 14.734l-1.67.953c13.774 24.18 27.55 48.358 41.324 72.537l1.67-.952z"/>
    <path fill="#1c9240" d="M78.854 88.223L37.53 15.686l-1.673.952c13.776 24.18 27.55 48.36 41.326 72.538l1.67-.953z"/>
    <path fill="#0c8c40" d="M77.183 89.176c-13.776-24.18-27.55-48.36-41.326-72.538-4.54 2.588-9.082 5.175-13.623 7.76L63.56 96.94c4.54-2.588 9.08-5.175 13.623-7.762z"/>
  </g>
  <g clip-path="url(#e)" transform="matrix(.38492 0 0 -.38492 -8.558 38.467)">
    <path fill="#6cb537" d="M93.32 29.31L34.364 0c-.28.567-.563 1.134-.845 1.7l58.96 29.31.84-1.7z"/>
    <path fill="#6cb537" d="M92.477 31.01L33.517 1.7 31.96 4.833l58.96 29.31 1.558-3.134z"/>
    <path fill="#5ead3a" d="M90.92 34.142L31.96 4.832l-1.557 3.134 58.958 29.31 1.56-3.134z"/>
    <path fill="#419f3e" d="M89.36 37.275c-19.65-9.77-39.304-19.54-58.957-29.31L28.846 11.1C48.5 20.87 68.15 30.64 87.806 40.408c.517-1.044 1.037-2.09 1.555-3.133z"/>
    <path fill="#1c9240" d="M87.805 40.408C68.15 30.638 48.5 20.868 28.845 11.1l-1.557 3.132 58.96 29.31c.518-1.045 1.037-2.09 1.557-3.134z"/>
    <path fill="#0c8c40" d="M86.247 43.54l-58.96-29.308c-1.683 3.39-3.368 6.78-5.053 10.167l58.958 29.3 5.055-10.17z"/>
  </g>
  <g clip-path="url(#f)" transform="matrix(.38492 0 0 -.38492 -8.558 38.467)">
    <path fill="#75b835" d="M86.125 87.226v3.386h-1.217v.862h3.522v-.862h-1.217v-3.386h-1.088zm2.645 0v4.248h1.496l.56-2.068c.05-.182.094-.36.134-.532.04-.172.077-.34.108-.503.036.18.077.36.124.55.046.19.098.39.158.61l.528 1.95h1.493v-4.25h-.99v1.89c0 .14.01.32.01.56l.03.83-.81-3.27h-1.08l-.8 3.27c.02-.37.03-.71.03-1.01.01-.3.01-.53.01-.7v-1.55h-1z"/>
  </g>
</svg>
