<svg xmlns="http://www.w3.org/2000/svg" width="89.9" height="40" xmlns:xlink="http://www.w3.org/1999/xlink">
  <defs>
    <clipPath id="g">
      <path d="M0 283.465h637.09V0H0v283.465z"/>
    </clipPath>
    <linearGradient id="a" x2="1" gradientUnits="userSpaceOnUse" gradientTransform="rotate(90 166.04 -41.51) scale(593)">
      <stop offset="0" stop-color="#f41b10"/>
      <stop offset="1" stop-color="#a11300"/>
    </linearGradient>
    <linearGradient id="b" x2="1" gradientUnits="userSpaceOnUse" gradientTransform="rotate(90 114.31 57.15) scale(381.03)">
      <stop offset="0" stop-color="#f41b10"/>
      <stop offset="1" stop-color="#a11300"/>
    </linearGradient>
    <linearGradient id="c" x2="1" gradientUnits="userSpaceOnUse" gradientTransform="rotate(90 171.99 43) scale(537.47)">
      <stop offset="0" stop-color="#f41b10"/>
      <stop offset="1" stop-color="#a11300"/>
    </linearGradient>
    <linearGradient id="d" x2="1" gradientUnits="userSpaceOnUse" gradientTransform="matrix(0 -593 593 0 130.46 498.12)">
      <stop offset="0" stop-color="#f41b10"/>
      <stop offset="1" stop-color="#a11300"/>
    </linearGradient>
    <linearGradient id="e" x2="1" gradientUnits="userSpaceOnUse" gradientTransform="matrix(0 -381.03 -381.03 0 86.09 339.51)">
      <stop offset="0" stop-color="#f41b10"/>
      <stop offset="1" stop-color="#a11300"/>
    </linearGradient>
    <linearGradient id="f" x2="1" gradientUnits="userSpaceOnUse" gradientTransform="matrix(0 -537.47 537.47 0 43 408.48)">
      <stop offset="0" stop-color="#f41b10"/>
      <stop offset="1" stop-color="#a11300"/>
    </linearGradient>
    <clipPath id="n">
      <path d="M0 283.465h637.09V0H0v283.465z"/>
    </clipPath>
    <linearGradient id="h" x2="1" xlink:href="#a" gradientUnits="userSpaceOnUse" gradientTransform="rotate(90 166.04 -41.51) scale(593)"/>
    <linearGradient id="i" x2="1" xlink:href="#b" gradientUnits="userSpaceOnUse" gradientTransform="rotate(90 114.31 57.15) scale(381.03)"/>
    <linearGradient id="j" x2="1" xlink:href="#c" gradientUnits="userSpaceOnUse" gradientTransform="rotate(90 171.99 43) scale(537.47)"/>
    <linearGradient id="k" x2="1" xlink:href="#d" gradientUnits="userSpaceOnUse" gradientTransform="matrix(0 -593 593 0 130.46 498.12)"/>
    <linearGradient id="l" x2="1" xlink:href="#e" gradientUnits="userSpaceOnUse" gradientTransform="matrix(0 -381.03 -381.03 0 86.09 339.51)"/>
    <linearGradient id="m" x2="1" xlink:href="#f" gradientUnits="userSpaceOnUse" gradientTransform="matrix(0 -537.47 537.47 0 43 408.48)"/>
  </defs>
  <g clip-path="url(#g)" transform="matrix(.14 0 0 -.14 0 40)">
    <path d="M386.158 226.743h-72.032v-6.62c3.456-.338 6.272-.706 8.58-1.234 2.716-.62 4.725-1.46 6.212-2.73 4.3-3.67 4.21-10.53 4.21-22.96l-.003-83.43c-.016-16.99 1.525-41.02-22.533-40.71-10.313.13-20.9 7.48-24.187 20.9h-8.28c3.502-22.49 15.482-37.75 44.515-37.75h.133c24.662 0 46.67 11.33 46.633 49.84v91.14c0 12.43-.09 19 4.21 22.67 2.75 2.34 5.024 3.5 12.542 4.23v6.62zm82.617-.003h-72.033v-6.62c7.52-.733 9.795-1.892 12.543-4.237 3.447-2.94 4.07-7.756 4.185-15.947-.008-2.482-.027-5.25.024-8.342v-99.79c-.05-3.095-.032-5.86-.024-8.344-.115-8.19-.738-13.005-4.185-15.945-2.748-2.345-5.022-3.505-12.543-4.237v-6.62h108.842l11.478 33.313h-8.453c-8.37-18.3-21.31-20.44-33.1-20.44-9.65 0-16.07.55-20.63 3.49-3.68 2.35-5.05 8.56-5.11 19.06v101.13c0 12.43-.1 19.29 4.21 22.96 2.75 2.35 7.27 3.23 14.79 3.96v6.62z"/>
    <path d="M588.802 226.74H516.77v-6.62c7.518-.733 9.794-1.892 12.542-4.237 3.447-2.94 4.07-7.756 4.183-15.947-.007-2.482-.025-5.25.026-8.342v-99.79c-.05-3.095-.03-5.86-.02-8.344-.11-8.19-.73-13.005-4.18-15.945-2.75-2.345-5.02-3.505-12.54-4.237v-6.62h108.84L637.1 89.97h-8.454c-8.365-18.3-21.3-20.44-33.1-20.44-9.652 0-16.07.55-20.625 3.49-3.67 2.35-5.04 8.56-5.1 19.06v101.13c0 12.43-.09 19.29 4.21 22.96 2.75 2.348 7.27 3.227 14.79 3.96v6.62z"/>
  </g>
  <path fill="url(#h)" d="M132.062 212.917c5.74-17.056 9.065-34.97 10.3-52.88.417-6.068.58-12.182.585-18.302h-.022c-.003-6.122-.148-12.237-.566-18.304-1.51-21.86-6.1-43.75-14.49-64.04-3.26-7.89-7.12-15.51-11.62-22.8-1.06-1.71-2.04-3.46-3.16-5.13-2.28-3.39-4.75-6.72-7.37-9.96-2.99-3.7-6.18-7.28-9.59-10.61-3.63-3.55-7.5-6.83-11.59-9.76-.33-.23-.64-.49-.97-.72V0c7.6.19 15.18 2.143 22.15 5.35 3.37 1.552 6.57 3.427 9.58 5.515.64.448 1.31.873 1.93 1.34 3.83 2.867 7.34 6.105 10.62 9.574 4.31 4.55 8.17 9.54 11.62 14.8 2.74 4.18 5.25 8.5 7.5 12.91 8.85 17.33 14.51 36.61 17.42 55.49 1.9 12.3 2.77 24.63 2.76 36.75.01 12.12-.86 24.45-2.76 36.75-2.918 18.88-8.57 38.16-17.42 55.49-1.028 2.01-2.117 4-3.24 5.97-4.72-8.64-8.56-17.71-11.7-27.04" transform="matrix(.14 0 0 -.14 0 40)"/>
  <path fill="url(#i)" d="M154.205 256.566c1.095-1.503 2.16-3.02 3.188-4.544 18.26-27.126 27.027-59.614 29.258-91.985.42-6.07.62-12.18.63-18.302 0-6.124-.2-12.235-.62-18.304-2.23-32.37-11-64.86-29.26-91.98-2.28-3.39-4.74-6.72-7.36-9.96-2.99-3.7-6.17-7.27-9.58-10.61-3.63-3.55-7.5-6.83-11.59-9.76-.32-.23-.64-.49-.97-.72V.01c7.6.19 15.18 2.14 22.14 5.35 3.37 1.55 6.58 3.425 9.59 5.51.65.45 1.31.874 1.94 1.344 12.85 9.62 22.5 23.09 29.75 37.28 8.85 17.33 14.5 36.614 17.42 55.494 1.9 12.3 2.77 24.63 2.76 36.75h.01c.016 12.12-.854 24.448-2.753 36.75-2.92 18.883-8.57 38.16-17.42 55.494-6.696 13.11-15.47 25.56-26.89 34.97-3.675-3.926-7.077-8.1-10.2-12.38" transform="matrix(.14 0 0 -.14 0 40)"/>
  <path fill="url(#j)" d="M172.172 283.464v-.383c11.725-8.17 21.642-19.36 29.507-31.05 18.26-27.12 27.03-59.61 29.26-91.98.41-6.07.61-12.18.62-18.3-.01-6.12-.21-12.23-.62-18.3-2.24-32.37-11-64.86-29.27-91.98-7.86-11.7-17.78-22.9-29.51-31.07V.01c12.05.3 24.07 5.03 33.66 12.205 12.85 9.62 22.5 23.09 29.74 37.28 8.85 17.335 14.5 36.617 17.42 55.497 1.9 12.3 2.77 24.63 2.75 36.748.01 12.12-.86 24.45-2.76 36.752-2.92 18.88-8.57 38.16-17.42 55.492-7.25 14.193-16.9 27.663-29.75 37.28-9.59 7.18-21.61 11.906-33.66 12.206z" transform="matrix(.14 0 0 -.14 0 40)"/>
  <path fill="url(#k)" d="M172.17 283.465c-7.6-.19-15.178-2.14-22.145-5.35-3.37-1.552-6.572-3.427-9.586-5.514-.65-.44-1.31-.87-1.94-1.34-3.83-2.86-7.35-6.1-10.63-9.57-4.31-4.55-8.17-9.54-11.62-14.8-2.74-4.18-5.26-8.5-7.51-12.91-8.85-17.33-14.5-36.61-17.42-55.49-1.9-12.3-2.77-24.63-2.76-36.75-.02-12.12.86-24.44 2.75-36.75 2.91-18.88 8.57-38.16 17.42-55.49 1.02-2.01 2.11-4 3.24-5.97 4.71 8.65 8.56 17.71 11.7 27.04-5.74 17.06-9.07 34.97-10.3 52.88-.42 6.07-.58 12.19-.59 18.31h.02c0 6.12.142 12.24.56 18.3 1.502 21.87 6.09 43.76 14.48 64.04 3.26 7.89 7.12 15.52 11.614 22.81 1.054 1.71 2.036 3.46 3.16 5.14 2.28 3.39 4.75 6.72 7.366 9.97 2.986 3.7 6.17 7.28 9.586 10.62 3.63 3.55 7.505 6.83 11.59 9.76.33.23.64.49.975.72v.384z" transform="matrix(.14 0 0 -.14 0 40)"/>
  <path fill="url(#l)" d="M127.88 283.464c-7.597-.19-15.177-2.14-22.142-5.35-3.37-1.552-6.574-3.426-9.588-5.51-.645-.45-1.31-.876-1.935-1.346-12.852-9.618-22.5-23.088-29.747-37.28-8.852-17.334-14.5-36.613-17.42-55.494-1.898-12.303-2.768-24.63-2.754-36.752h-.003c-.01-12.12.86-24.447 2.76-36.75 2.92-18.88 8.57-38.16 17.42-55.494 6.7-13.107 15.47-25.56 26.9-34.97 3.67 3.93 7.08 8.1 10.2 12.384-1.09 1.502-2.16 3.018-3.19 4.543C80.11 58.57 71.34 91.058 69.11 123.43c-.418 6.068-.616 12.18-.622 18.302.006 6.124.204 12.235.622 18.305 2.236 32.37 11 64.86 29.263 91.983 2.28 3.388 4.748 6.72 7.365 9.963 2.988 3.7 6.173 7.275 9.586 10.617 3.628 3.553 7.502 6.827 11.588 9.76.326.234.64.49.97.72v.384h-.002z" transform="matrix(.14 0 0 -.14 0 40)"/>
  <path fill="url(#m)" d="M83.588 283.465c-12.055-.3-24.08-5.028-33.66-12.206-12.855-9.62-22.502-23.09-29.75-37.29-8.85-17.34-14.5-36.62-17.42-55.5-1.9-12.3-2.767-24.63-2.754-36.75H0v-.48c.01-11.97.883-24.13 2.758-36.27 2.917-18.88 8.57-38.16 17.42-55.49 7.245-14.19 16.894-27.66 29.747-37.28C59.51 5.03 71.53.3 83.588 0v.384c-11.724 8.17-21.643 19.37-29.507 31.058C35.82 58.57 27.05 91.06 24.82 123.43c-.417 6.07-.615 12.18-.622 18.305.007 6.122.205 12.232.62 18.302 2.236 32.37 11 64.86 29.267 91.984 7.86 11.7 17.78 22.89 29.506 31.06v.39z" transform="matrix(.14 0 0 -.14 0 40)"/>
  <g clip-path="url(#n)" transform="matrix(.14 0 0 -.14 0 40)">
    <path fill="#a11300" d="M135.648 14.52c3.672 3.928 7.07 8.1 10.195 12.385-1.095 1.5-2.16 3.014-3.184 4.54-1.13 1.67-2.11 3.422-3.16 5.133-3.46-5.258-7.31-10.246-11.62-14.8 2.44-2.574 5.02-5.002 7.76-7.258m23.96-3.657c-3.02-2.088-6.22-3.96-9.59-5.512C156.99 2.14 164.56.19 172.16 0h.007v.39c-4.453 3.1-8.64 6.643-12.56 10.477M127.88 0v.387c-.203.14-.397.3-.6.443-1.19-.21-2.38-.406-3.58-.537 1.39-.15 2.784-.256 4.178-.293zm-4.18.295c1.2.13 2.39.324 3.58.535-1.21.857-2.41 1.738-3.58 2.658-2.92 2.295-5.712 4.768-8.38 7.377-3.01-2.09-6.213-3.96-9.584-5.513 4.582-2.112 9.435-3.643 14.38-4.522 1.193-.21 2.386-.406 3.584-.535m-3.587 268.65c-3.67-3.926-7.07-8.1-10.194-12.383 1.09-1.502 2.16-3.017 3.18-4.54 1.12-1.672 2.1-3.424 3.16-5.135 3.45 5.26 7.31 10.246 11.62 14.8-2.44 2.576-5.03 5.003-7.77 7.26m-23.96 3.656c3.01 2.085 6.21 3.96 9.58 5.51-6.97 3.21-14.55 5.16-22.14 5.35h-.01v-.383c4.45-3.102 8.64-6.644 12.56-10.477m53.87 5.51c-4.59 2.113-9.44 3.646-14.39 4.523-1.19.21-2.39.407-3.58.536-1.39.15-2.79.257-4.18.292h-.01v-.383c.2-.14.4-.3.6-.44 1.21-.86 2.41-1.74 3.58-2.66 2.92-2.29 5.71-4.76 8.38-7.37 3.01 2.09 6.21 3.97 9.58 5.52"/>
    <path d="M616.617 217.785h.878c1.25 0 2.024.048 2.327.144.302.09.54.26.714.5.175.24.263.51.263.82 0 .29-.09.56-.26.79-.17.23-.42.4-.73.5-.32.1-1.09.15-2.32.15h-.88v-2.91zm-2.162-6.057v10.66h2.162c2.027 0 3.163-.01 3.41-.028.715-.06 1.27-.203 1.67-.426.397-.223.73-.564.995-1.023.268-.45.4-.96.4-1.52 0-.77-.25-1.42-.752-1.97-.503-.54-1.21-.88-2.118-1.01.324-.12.572-.25.747-.4.17-.14.41-.41.72-.82.07-.1.34-.54.78-1.3l1.26-2.15h-2.68l-.89 1.73c-.61 1.17-1.11 1.9-1.5 2.2-.4.3-.89.45-1.5.45h-.57v-4.38h-2.16zm4.548 13.45c-1.38 0-2.704-.344-3.972-1.035-1.26-.69-2.26-1.682-2.99-2.976-.73-1.293-1.09-2.648-1.09-4.064 0-1.406.36-2.748 1.07-4.024.71-1.28 1.71-2.28 2.98-2.99 1.28-.72 2.62-1.08 4.02-1.08 1.41 0 2.75.36 4.02 1.07 1.28.71 2.27 1.71 2.99 2.99.72 1.27 1.08 2.61 1.08 4.02 0 1.41-.36 2.77-1.09 4.06s-1.73 2.28-3 2.97c-1.27.69-2.596 1.03-3.976 1.03m-.02 1.97c1.72 0 3.37-.43 4.954-1.29 1.58-.86 2.82-2.1 3.73-3.7.9-1.61 1.35-3.29 1.35-5.05 0-1.75-.44-3.42-1.33-5-.89-1.59-2.12-2.83-3.71-3.71-1.59-.89-3.25-1.33-5-1.33s-3.42.44-5 1.33c-1.59.88-2.82 2.12-3.71 3.71-.89 1.58-1.33 3.25-1.33 5s.45 3.44 1.354 5.04c.91 1.61 2.15 2.84 3.73 3.7 1.58.86 3.238 1.29 4.96 1.29"/>
  </g>
</svg>
